<?xml version="1.0" encoding="UTF-8" standalone="no"?>
<svg
   version="1.1"
   id="svg101"
   width="180"
   height="180"
   viewBox="0 0 180 180"
   xmlns="http://www.w3.org/2000/svg"
   xmlns:svg="https://www.w3.org/2000/svg">
  <rect
     style="display:inline;fill:#801bcd;fill-opacity:1;stroke:none"
     id="rect217-9"
     width="180"
     height="180"
     x="-180"
     y="-180"
     transform="scale(-1)" />
  <path
     id="rect942"
     style="fill:#eea519;fill-opacity:1;stroke:none"
     d="M 90.451965,13 A 37.797546,33.098038 0 0 0 52.843503,43.816406 h -0.002 v 33.00586 H 32 v 13.33789 0.154297 76.943347 h 13.433975 0.117705 103.44631 l 0.002,-13.49217 H 116.59014 V 90.314453 h 32.40201 V 76.822266 h -20.84149 v -33.00586 h -0.002 A 37.797546,33.098038 0 0 0 90.451965,13 Z m 0.01373,9.642578 a 25.973008,22.743689 0 0 1 3.8862,0.257813 25.973008,22.743689 0 0 1 3.797923,0.761718 25.973008,22.743689 0 0 1 3.625282,1.251953 25.973008,22.743689 0 0 1 3.37027,1.712891 25.973008,22.743689 0 0 1 3.0407,2.136719 25.973008,22.743689 0 0 1 2.64049,2.507812 25.973008,22.743689 0 0 1 2.18145,2.828125 25.973008,22.743689 0 0 1 1.67533,3.082032 25.973008,22.743689 0 0 1 1.12799,3.265625 25.973008,22.743689 0 0 1 0.55714,3.36914 v 33.00586 H 64.623735 v -33.00586 a 25.973008,22.743689 0 0 1 0.555171,-3.365234 25.973008,22.743689 0 0 1 1.126037,-3.259766 25.973008,22.743689 0 0 1 1.669438,-3.078125 25.973008,22.743689 0 0 1 2.177529,-2.824219 25.973008,22.743689 0 0 1 2.632651,-2.507812 25.973008,22.743689 0 0 1 3.032845,-2.134766 25.973008,22.743689 0 0 1 3.362417,-1.714843 25.973008,22.743689 0 0 1 3.615482,-1.25586 25.973008,22.743689 0 0 1 3.792037,-0.769531 25.973008,22.743689 0 0 1 3.878355,-0.263672 z M 45.551727,90.314453 h 57.486743 l 0.27856,63.451167 H 45.551727 Z" />
  <rect
     style="fill:#eea519;fill-opacity:1;stroke:none"
     id="rect1176"
     width="27"
     height="13"
     x="122"
     y="96" />
  <rect
     style="fill:#eea519;fill-opacity:1;stroke:none"
     id="rect1176-3"
     width="27"
     height="13"
     x="122"
     y="115" />
  <rect
     style="fill:#eea519;fill-opacity:1;stroke:none"
     id="rect1176-3-5"
     width="27"
     height="13"
     x="122"
     y="135" />
</svg>